<?xml version="1.0" encoding="UTF-8"?>
<!DOCTYPE svg PUBLIC "-//W3C//DTD SVG 1.1//EN" "http://www.w3.org/Graphics/SVG/1.1/DTD/svg11.dtd">
<!-- Creator: CorelDRAW -->
<svg xmlns="http://www.w3.org/2000/svg" xml:space="preserve" width="16.9332mm" height="3.2172mm" version="1.1" style="shape-rendering:geometricPrecision; text-rendering:geometricPrecision; image-rendering:optimizeQuality; fill-rule:evenodd; clip-rule:evenodd"
viewBox="0 0 1693.32 321.72"
 xmlns:xlink="http://www.w3.org/1999/xlink"
 xmlns:xodm="http://www.corel.com/coreldraw/odm/2003">
 <defs>
  <style type="text/css">
   <![CDATA[
    .fil1 {fill:#FEC502}
    .fil0 {fill:#FF7031}
    .fil2 {fill:#201E1E;fill-rule:nonzero}
    .fil3 {fill:#FF7031;fill-rule:nonzero}
   ]]>
  </style>
 </defs>
 <g id="Camada_x0020_1">
  <metadata id="CorelCorpID_0Corel-Layer"/>
  <g id="_1555094976560">
   <path class="fil0" d="M15.36 4.02l63.36 0c7.09,0 10.8,6.12 12.89,12.89l44.58 143.95 -44.58 143.95c-2.09,6.77 -5.8,12.9 -12.89,12.9l-63.36 0c-7.1,0 -15,-6.13 -12.9,-12.9l44.58 -143.94 -44.58 -143.96c-2.1,-6.77 5.8,-12.89 12.9,-12.89z"/>
   <path class="fil1" d="M103.46 25.61l22.85 0c6.12,0 9.31,5.29 11.12,11.13l38.44 124.12 -38.44 124.13c-1.81,5.83 -5.01,11.12 -11.12,11.12l-22.84 0 41.88 -135.25 -41.89 -135.25z"/>
   <polygon class="fil1" points="21.67,107.72 5.21,160.86 21.67,214.01 38.13,160.87 "/>
   <g>
    <path class="fil2" d="M336.91 64.63l-69.3 0c-6.76,0 -10.69,3.37 -11.8,10.13l-27.16 172.63c-1.25,6.71 1.39,10.12 8.01,10.12l22.51 0c6.77,0 10.71,-3.41 11.81,-10.12l7.15 -45.16 36.56 0c20.69,0 38.26,-6.19 52.74,-18.67 14.45,-12.49 23.33,-29.18 26.54,-50.16 3.26,-20.67 -0.43,-37.29 -10.79,-49.81 -10.42,-12.48 -25.87,-18.81 -46.41,-18.81l0.14 -0.15zm14.64 68.92c-1.3,9.12 -4.94,16.46 -10.99,21.78 -6.05,5.38 -13.63,8.02 -22.6,8.02l-33.5 0 9.31 -59.37 33.3 0c8.88,0 15.6,2.7 20.12,8.02 4.5,5.37 6.04,12.53 4.5,21.55l-0.14 0zm28.76 123.96l26.16 0c5.46,0 9.83,-2.54 12.9,-7.49l38.1 -51.3 3.08 0 21.64 51.3c1.3,4.95 4.65,7.49 10.13,7.49l30.23 0c3.8,0 6.48,-1.15 8.16,-3.56 1.68,-2.34 1.82,-5.32 0.53,-8.97l-37.92 -85.47 62.1 -82.11c2.69,-3.79 3.51,-6.91 2.69,-9.16 -0.86,-2.27 -3.26,-3.37 -7.05,-3.37l-25.87 0c-5.47,0 -9.84,2.54 -13.05,7.44l-37.53 51.35 -3.08 0 -21.64 -51.35c-1.29,-4.9 -4.65,-7.44 -10.12,-7.44l-29.95 0c-3.79,0 -6.62,1.25 -8.3,3.65 -1.68,2.4 -1.97,5.47 -0.72,9.17l37.96 85.47 -62.67 82.11c-2.55,3.79 -3.37,6.86 -2.55,9.12 0.86,2.26 3.12,3.36 6.91,3.36l-0.14 -0.24z"/>
    <path class="fil3" d="M614.7 260.96c23.08,0 42.33,-5.75 57.97,-17.42 15.6,-11.65 25.14,-28.55 28.65,-50.58 1.01,-6.48 -1.39,-9.69 -7.15,-9.69l-24.91 0c-4.89,0 -8.45,2.78 -10.56,8.54 -2.06,9.55 -6.43,16.98 -13.05,22.22 -6.63,5.18 -14.93,7.87 -24.91,7.87 -10.12,0 -17.84,-2.97 -23.22,-8.88 -5.33,-5.9 -7.3,-13.63 -5.76,-23.18l9.16 -57.59c1.54,-9.55 5.91,-17.27 13.06,-23.18 7.2,-5.9 15.88,-8.87 26.3,-8.87 9.69,0 17.03,2.68 21.93,7.87 4.94,5.23 7.05,12.67 6.33,22.22 0.29,5.76 2.93,8.54 7.87,8.54l25.06 0c5.76,0.14 9.11,-2.93 10.07,-9.12 3.56,-22.07 -0.67,-39.06 -12.48,-50.87 -11.8,-11.81 -29.41,-17.71 -52.6,-17.71 -23.18,0 -42.75,6.48 -58.63,19.39 -15.89,12.96 -25.44,29.94 -28.66,51.01l-9.54 59.32c-3.22,21.07 1.1,38.06 12.9,50.97 11.86,12.96 29.42,19.38 52.6,19.38l-0.43 -0.24zm165.09 0c23.47,0 43.29,-6.61 59.46,-19.81 16.12,-13.2 25.96,-30.48 29.52,-51.98l8.68 -56.49c3.51,-21.45 -0.81,-38.77 -12.91,-51.97 -12.09,-13.19 -29.8,-19.82 -53.27,-19.82 -23.61,0 -43.57,6.63 -59.75,19.67 -16.12,13.11 -25.96,30.53 -29.51,52.12l-8.98 56.49c-3.35,21.65 0.96,39.06 13.2,52.12 12.24,13.06 30.09,19.67 53.7,19.67l-0.14 0zm6.19 -39.25c-10.84,0.04 -18.96,-3.02 -24.47,-9.22 -5.47,-6.19 -7.44,-14.2 -5.91,-24.18l8.59 -54.62c1.68,-10.12 6.2,-18.14 13.63,-24.19 7.44,-6 16.61,-8.97 27.41,-8.97 10.55,0 18.52,3.07 24.04,9.26 5.47,6.19 7.44,14.21 5.9,24.19l-9.02 54.62c-1.54,9.98 -6.05,18.13 -13.34,24.33 -7.29,6.14 -16.32,9.21 -26.83,9.21l0 -0.43zm98.78 35.8l24.71 0c6.05,0 9.56,-2.97 10.66,-8.88l15.59 -99.68 0.29 -13.48 3.07 0 38.38 115.13c1.1,4.66 4.18,6.91 9.41,6.91l33.4 0c6.05,0 9.6,-2.97 10.56,-8.88l27.55 -175.17c0.95,-5.89 -1.39,-8.88 -7.2,-8.88l-24.72 0c-6.04,0 -9.54,2.99 -10.51,8.88l-15.89 99.68 -0.28 13.48 -3.07 0 -38.25 -115.12c-1.24,-4.66 -4.46,-6.92 -9.68,-6.92l-33.41 0c-5.9,0 -9.3,2.99 -10.26,8.88l-27.7 175.17c-0.95,5.91 1.44,8.88 7.2,8.88l0.15 0zm177.61 0l24.71 0c6.05,0 9.55,-2.97 10.65,-8.88l15.59 -99.68 0.29 -13.48 3.08 0 38.39 115.13c1.1,4.66 4.17,6.91 9.4,6.91l33.41 0c6.04,0 9.6,-2.97 10.56,-8.88l27.55 -175.17c0.95,-5.89 -1.4,-8.88 -7.2,-8.88l-24.73 0c-6.03,0 -9.54,2.99 -10.5,8.88l-15.89 99.68 -0.28 13.48 -3.08 0 -38.25 -115.12c-1.24,-4.66 -4.46,-6.92 -9.69,-6.92l-33.4 0c-5.9,0 -9.31,2.99 -10.27,8.88l-27.69 175.17c-0.95,5.91 1.44,8.88 7.2,8.88l0.15 0zm314.43 -192.88l-105.1 0c-6.43,-0.14 -10.22,3.08 -11.37,9.69l-27.41 173.31c-0.96,6.62 1.68,9.83 8.02,9.83l105.09 0c6.58,0 10.38,-3.21 11.53,-9.83l2.78 -19.25c1.29,-6.48 -1.54,-9.69 -8.26,-9.69l-71.94 0 6.05 -39.27 60.95 0c6.62,0 10.42,-3.35 11.52,-10.12l2.83 -18.38c1.24,-6.62 -1.54,-9.98 -8.3,-9.98l-60.66 0 5.76 -37.53 72.17 0c6.62,0.14 10.42,-3.07 11.38,-9.69l3.11 -19.4c0.97,-6.47 -1.67,-9.69 -8.01,-9.69l-0.14 0zm65.47 196.33c23.08,0 42.33,-5.75 57.97,-17.42 15.6,-11.65 25.14,-28.55 28.64,-50.58 1.02,-6.48 -1.39,-9.69 -7.14,-9.69l-24.91 0c-4.89,0 -8.45,2.78 -10.56,8.54 -2.06,9.55 -6.43,16.98 -13.05,22.22 -6.63,5.18 -14.93,7.87 -24.91,7.87 -10.13,0 -17.85,-2.97 -23.22,-8.88 -5.33,-5.9 -7.3,-13.63 -5.76,-23.18l9.16 -57.59c1.53,-9.55 5.91,-17.27 13.06,-23.18 7.2,-5.9 15.88,-8.87 26.29,-8.87 9.7,0 17.04,2.68 21.93,7.87 4.95,5.23 7.06,12.67 6.34,22.22 0.29,5.76 2.93,8.54 7.87,8.54l25.05 0c5.76,0.14 9.12,-2.93 10.08,-9.12 3.55,-22.07 -0.67,-39.06 -12.48,-50.87 -11.8,-11.81 -29.42,-17.71 -52.6,-17.71 -23.18,0 -42.75,6.48 -58.64,19.39 -15.89,12.96 -25.43,29.94 -28.65,51.01l-9.55 59.32c-3.21,21.07 1.11,38.06 12.91,50.97 11.86,12.96 29.42,19.38 52.6,19.38l-0.43 -0.24zm240.38 -196.33l-124.34 0c-6.63,0 -10.56,3.37 -11.66,10.13l-2.98 19.24c-0.96,6.48 1.83,9.7 8.45,9.7l41.17 0 -22.74 143.69c-1.15,6.71 1.68,10.12 8.39,10.12l22.51 0c6.72,0 10.66,-3.41 11.81,-10.12l22.32 -143.69 40.88 0c6.77,0.14 10.56,-3.07 11.52,-9.7l2.98 -19.24c1.1,-6.76 -1.54,-10.13 -8.16,-10.13l-0.15 0z"/>
   </g>
  </g>
 </g>
</svg>
